# xmcd CD database file
#
# Track frame offsets:
#	150
#	15363
#	29566
#	42707
#	57257
#	72503
#	88253
#	102803
#	119238
#	130842
#	144544
#
# Disc length: 2110 seconds
#
# Revision: 0
# Processed by: cddbd v1.5.2PL0 Copyright (c) Steve Scherf et al.
# Submitted via: CDex 1.51
#
DISCID=a5083c0b
DTITLE=John Crampton - Diesel Blues
DYEAR=1900
DGENRE=Blues
TTITLE0=No no
TTITLE1=How Many More Years?
TTITLE2=Who Do You Love
TTITLE3=Highway 49
TTITLE4=Miss My Baby
TTITLE5=Don't Say A Word
TTITLE6=Down Deeper
TTITLE7=Skyhawk
TTITLE8=Walking In The Park
TTITLE9=Diesel Blues
TTITLE10=Gambling Man
EXTD=
EXTT0=
EXTT1=
EXTT2=
EXTT3=
EXTT4=
EXTT5=
EXTT6=
EXTT7=
EXTT8=
EXTT9=
EXTT10=
PLAYORDER=
